<?xml version="1.0" standalone="no"?>
<!DOCTYPE svg PUBLIC "-//W3C//DTD SVG 20010904//EN"
 "http://www.w3.org/TR/2001/REC-SVG-20010904/DTD/svg10.dtd">
<svg version="1.0" xmlns="http://www.w3.org/2000/svg"
 width="32.000000pt" height="32.000000pt" viewBox="0 0 32.000000 32.000000"
 preserveAspectRatio="xMidYMid meet">

<g transform="translate(0.000000,32.000000) scale(0.100000,-0.100000)"
fill="#000000" stroke="none">
<path d="M12 308 c-17 -17 -17 -279 0 -296 17 -17 279 -17 296 0 17 17 17 279
0 296 -17 17 -279 17 -296 0z m122 -65 c3 -10 8 -35 12 -55 3 -21 9 -38 13
-38 3 0 20 24 36 53 20 34 38 53 53 55 30 5 30 -17 -4 -176 -2 -12 -12 -22
-21 -22 -13 0 -15 9 -10 58 l7 57 -26 -42 c-31 -52 -59 -57 -69 -13 -10 48
-22 44 -29 -10 -6 -42 -10 -50 -28 -50 -18 0 -20 4 -14 33 4 17 12 62 18 100
10 60 13 67 34 67 13 0 25 -7 28 -17z"/>
</g>
</svg>
